<svg preserveAspectRatio="none" width="100%" height="100%" overflow="visible" style="display: block;" viewBox="0 0 24 21.9696" fill="none" xmlns="http://www.w3.org/2000/svg">
<g id="Group">
<path id="Vector" d="M18.3289 19.4895C18.172 19.4895 18.0449 19.3623 18.0449 19.2055V18.6328C18.0449 18.4759 18.1721 18.3488 18.3289 18.3488C18.4857 18.3488 18.6129 18.476 18.6129 18.6328V19.2055C18.6129 19.3624 18.4857 19.4895 18.3289 19.4895Z" fill="var(--fill-0, #FB6D3A)"/>
<path id="Vector_2" d="M19.9474 18.4797C19.7906 18.4797 19.6634 18.3525 19.6634 18.1957V17.623C19.6634 17.4662 19.7906 17.339 19.9474 17.339C20.1043 17.339 20.2314 17.4662 20.2314 17.623V18.1957C20.2314 18.3526 20.1042 18.4797 19.9474 18.4797Z" fill="var(--fill-0, #FB6D3A)"/>
<path id="Vector_3" d="M20.967 14.2538C20.9784 14.2155 20.9905 14.1775 21.0009 14.1387C21.3721 12.7555 21.1497 11.1907 20.3578 9.61343C19.6342 8.17212 18.1798 6.81148 16.3676 5.88036C15.6381 5.5055 14.7273 5.14911 13.9182 5.00961C13.4454 4.6085 13.1535 4.01315 13.1535 3.36707V1.44407C13.1535 0.647811 12.5057 0 11.7095 0H10.0652C9.26891 0 8.6211 0.647811 8.6211 1.44407V3.36707C8.6211 3.98094 8.35734 4.54869 7.92553 4.94788C6.98906 4.94493 5.7481 5.39741 4.80816 5.88036C2.99598 6.81148 1.54159 8.17212 0.817936 9.61343C0.0260323 11.1907 -0.196342 12.7555 0.174813 14.1387C0.528343 15.4563 1.4124 16.528 2.6642 17.1565C3.36277 17.5073 4.1034 17.6837 4.8421 17.6837C5.42714 17.6836 6.01111 17.5729 6.57145 17.3504C6.78703 17.2648 6.99698 17.1636 7.20108 17.0478C8.16815 18.0787 9.49199 18.6446 10.9463 18.6446C11.3634 18.6446 11.7695 18.5971 12.1598 18.5063C13.0582 20.5325 15.2777 21.9696 17.8667 21.9696C21.2486 21.9696 24 19.5175 24 16.5034C24 15.3114 22.6657 14.6082 20.967 14.2538ZM15.935 6.72237C17.5726 7.56378 18.8762 8.77235 19.5119 10.0382C20.2479 11.5041 20.4024 12.929 20.0254 14.0962C19.3157 14.0038 18.5763 13.9619 17.8668 13.9619C17.3141 13.9619 16.7434 13.9875 16.1828 14.0423C16.2996 13.4787 16.3593 12.8772 16.3593 12.2437C16.3593 10.4954 15.616 8.46874 14.3199 6.68314C14.1424 6.43873 13.9437 6.18622 13.7309 5.93844C14.2845 6.0298 15.0513 6.2683 15.935 6.72237V6.72237ZM9.56774 3.36707V1.44407C9.56774 1.16981 9.79091 0.946638 10.0652 0.946638H11.7095C11.9837 0.946638 12.2069 1.16981 12.2069 1.44407V3.36707C12.2069 3.86807 12.3292 4.3476 12.5477 4.77383C11.9975 4.33354 11.436 4.03499 10.9463 4.03499C10.3907 4.03499 9.74263 4.41904 9.12365 4.9588C9.40668 4.4886 9.56774 3.94204 9.56774 3.36707V3.36707ZM6.22209 16.4707C5.20875 16.8731 4.09604 16.8163 3.08898 16.3106C0.903811 15.2134 0.331141 12.6927 1.66393 10.0382C2.29951 8.77231 3.60319 7.56373 5.24077 6.72237C6.42206 6.11544 7.39429 5.89353 7.92806 5.89353C8.02846 5.89353 8.11312 5.9015 8.18095 5.91608C7.96092 6.17099 7.75546 6.43138 7.5727 6.68314C6.27661 8.46874 5.53331 10.4955 5.53331 12.2437C5.53331 13.8237 5.90334 15.2057 6.60966 16.2914C6.48276 16.3579 6.35372 16.4184 6.22209 16.4707V16.4707ZM10.9463 17.6979C8.27484 17.6979 6.47995 15.506 6.47995 12.2437C6.47995 10.6908 7.15748 8.86671 8.33882 7.23922C9.45665 5.69919 10.5556 4.98168 10.9463 4.98168C11.337 4.98168 12.436 5.69919 13.5538 7.23922C14.7351 8.86671 15.4127 10.6908 15.4127 12.2437C15.4127 12.9405 15.3304 13.5881 15.1754 14.1762C13.2868 14.5 11.7335 15.2172 11.7335 16.5034C11.7335 16.8814 11.7768 17.2505 11.8591 17.607C11.5682 17.6669 11.2634 17.6979 10.9463 17.6979V17.6979ZM17.8667 21.023C15.0068 21.023 12.6801 18.9955 12.6801 16.5034C12.6801 16.1013 13.2056 15.7 14.1217 15.4025C15.0881 15.0886 16.4531 14.9086 17.8667 14.9086C19.2804 14.9086 20.6454 15.0886 21.6117 15.4025C22.5278 15.7 23.0533 16.1013 23.0533 16.5034C23.0533 18.9955 20.7266 21.023 17.8667 21.023Z" fill="var(--fill-0, #FB6D3A)"/>
<path id="Vector_4" d="M8.05771 12.2266C8.04468 12.2266 8.03151 12.226 8.01829 12.2249C7.75776 12.2035 7.56398 11.9748 7.58545 11.7144C7.6881 10.4689 8.00568 9.35768 8.52932 8.41137C8.65588 8.18262 8.94388 8.09989 9.17263 8.2264C9.40138 8.35301 9.48416 8.64101 9.35759 8.86971C8.89925 9.69795 8.62044 10.6812 8.5289 11.7921C8.5085 12.0393 8.30146 12.2266 8.05771 12.2266V12.2266Z" fill="var(--fill-0, #FB6D3A)"/>
<path id="Vector_5" d="M10.0843 7.58907C9.96559 7.58907 9.84681 7.54473 9.75489 7.45562C9.5672 7.2737 9.56252 6.97403 9.74444 6.78634C9.87133 6.65542 10.0421 6.48587 10.2382 6.33554C10.4456 6.17645 10.7428 6.21569 10.9018 6.42315C11.0609 6.63058 11.0217 6.92772 10.8142 7.08676C10.6671 7.19959 10.5285 7.33759 10.4242 7.44521C10.3314 7.54093 10.2079 7.58907 10.0843 7.58907Z" fill="var(--fill-0, #FB6D3A)"/>
<path id="Vector_6" d="M2.28729 12.2035C2.25682 12.2035 2.22588 12.2005 2.19485 12.1943C1.93878 12.1435 1.77214 11.8955 1.82243 11.6393C1.83856 11.5573 2.23395 9.61682 3.70052 8.47218C3.90658 8.31126 4.20405 8.34796 4.36483 8.55402C4.5257 8.76013 4.489 9.05756 4.28294 9.21838C3.09954 10.1421 2.75444 11.806 2.75107 11.8227C2.70607 12.0476 2.50835 12.2035 2.28729 12.2035V12.2035Z" fill="var(--fill-0, #FB6D3A)"/>
</g>
</svg>
