<svg preserveAspectRatio="none" width="100%" height="100%" overflow="visible" style="display: block;" viewBox="0 0 16.0066 22.8409" fill="none" xmlns="http://www.w3.org/2000/svg">
<g id="Group">
<path id="Vector" d="M15.8076 5.24633C16.0765 4.44009 16.0728 3.56852 15.7969 2.76458C15.5211 1.96065 14.9883 1.26849 14.2799 0.793704C13.0659 -0.0204971 11.7639 -0.216097 10.6139 0.243112C9.44913 0.70826 8.5984 1.81232 8.27988 3.27213C8.1764 3.74705 8.08044 4.25358 7.99469 4.77773C7.94228 5.09805 7.88004 5.43005 7.8099 5.76454C7.80115 5.81151 7.77769 5.85453 7.74288 5.88746C7.70806 5.92039 7.66368 5.94153 7.61605 5.94788C7.56721 5.95642 7.51691 5.94972 7.47206 5.92869C7.4272 5.90766 7.39 5.87334 7.36555 5.83045C7.05956 5.30782 6.7948 4.80877 6.5788 4.34688C6.45963 4.09407 6.28956 3.86826 6.07909 3.68343C5.86862 3.4986 5.62225 3.35868 5.3552 3.27232C5.09928 3.18723 4.82835 3.15603 4.55964 3.1807C4.29093 3.20537 4.03032 3.28538 3.7944 3.41562C3.33598 3.66604 2.99513 4.08582 2.84559 4.58416C2.69605 5.08249 2.74983 5.61932 2.99531 6.07854C3.74449 7.50387 5.25924 8.95717 6.39786 9.9254C6.4354 9.95694 6.46207 9.99938 6.47413 10.0468C6.48619 10.0941 6.48304 10.1441 6.46511 10.1896C5.72748 12.0301 4.79124 13.7857 3.67281 15.4256C3.50594 15.2215 3.35352 15.0221 3.22037 14.8305C3.10793 14.6669 2.95936 14.5309 2.786 14.4331C2.61264 14.3352 2.41909 14.2781 2.22011 14.2659C2.02218 14.2527 1.82383 14.2849 1.64038 14.36C1.45692 14.435 1.29327 14.551 1.16204 14.6989C0.949825 14.9372 0.832684 15.2445 0.832733 15.5627C0.831932 15.783 0.888207 15.9997 0.996135 16.1921C1.28162 16.7058 1.59996 17.2007 1.94919 17.6739C1.52989 18.1605 1.09544 18.6267 0.645822 19.0724C0.402668 19.3146 0.219776 19.6099 0.111722 19.9347C0.00366841 20.2596 -0.0265585 20.6051 0.0234503 20.9436C0.0734591 21.2822 0.202321 21.6044 0.399765 21.8847C0.597209 22.165 0.857775 22.3955 1.16069 22.558L1.20598 22.5823C1.51886 22.7516 1.8693 22.8405 2.22551 22.8409C2.65005 22.8411 3.06462 22.7129 3.41422 22.4735C5.15384 21.2836 7.37461 19.1092 9.35471 16.6564C9.38054 16.6236 9.41461 16.598 9.4535 16.5823C9.49239 16.5667 9.53474 16.5614 9.57631 16.5672C10.7653 16.734 11.9391 16.9952 13.0862 17.3482C13.3664 17.4418 13.6652 17.4672 13.9574 17.4223C14.2495 17.3774 14.5266 17.2634 14.7653 17.09C15.0024 16.921 15.1954 16.698 15.328 16.4396C15.4606 16.1812 15.529 15.895 15.5274 15.6049V15.5405C15.5336 15.0651 15.3783 14.6015 15.0865 14.2248C14.7947 13.8481 14.3835 13.5804 13.9196 13.465C13.3751 13.3415 12.8204 13.2681 12.2624 13.2456C12.2214 13.2438 12.1816 13.2312 12.1472 13.209C12.1127 13.1869 12.0848 13.156 12.0663 13.1196C12.0464 13.0822 12.0369 13.0402 12.0388 12.9979C12.0408 12.9557 12.054 12.9147 12.0772 12.8793C13.6251 10.4935 14.8777 7.93065 15.8076 5.24633ZM1.58481 15.8652C1.53308 15.7728 1.50651 15.6685 1.50773 15.5627C1.50797 15.4089 1.56462 15.2604 1.66709 15.1451C1.73038 15.0735 1.8093 15.0174 1.89781 14.9808C1.98633 14.9443 2.08207 14.9284 2.17772 14.9344C2.27475 14.9404 2.36911 14.9684 2.45359 15.0162C2.53808 15.064 2.61047 15.1304 2.66523 15.2102C2.84039 15.4627 3.04464 15.7261 3.27182 15.9957C2.98921 16.3873 2.69689 16.7691 2.39488 17.1411C2.10049 16.7316 1.83002 16.3056 1.58481 15.8652V15.8652ZM11.4672 13.4267C11.5394 13.5676 11.6479 13.687 11.7816 13.7726C11.9154 13.8583 12.0696 13.9071 12.2285 13.9142C12.7446 13.9348 13.2577 14.0023 13.7614 14.1159C14.078 14.1964 14.358 14.3807 14.5561 14.639C14.7543 14.8974 14.8588 15.2147 14.853 15.5395V15.6049C14.8541 15.789 14.8108 15.9708 14.7266 16.1348C14.6425 16.2989 14.52 16.4405 14.3695 16.5478C14.2169 16.6584 14.0398 16.7311 13.8531 16.7596C13.6665 16.7882 13.4756 16.7719 13.2966 16.712C12.9644 16.6036 12.6243 16.5068 12.2857 16.4198C12.4505 16.061 12.6582 15.5453 12.6673 15.2075C12.6696 15.1186 12.6363 15.0324 12.5748 14.9679C12.5443 14.936 12.5078 14.9103 12.4673 14.8924C12.4268 14.8745 12.3832 14.8646 12.3389 14.8635C12.2495 14.8611 12.1628 14.8942 12.0979 14.9554C12.033 15.0167 11.9952 15.101 11.9928 15.1899C11.9202 15.5631 11.793 15.9237 11.6152 16.2603C10.893 16.0995 10.2101 15.9831 9.67304 15.9047C9.51525 15.8821 9.35427 15.9009 9.20604 15.9592C9.0578 16.0175 8.92745 16.1133 8.82789 16.2371C8.59666 16.5233 8.36273 16.805 8.12611 17.0823C7.65703 16.9036 7.21123 16.6695 6.79827 16.3852C6.76389 16.3574 6.72435 16.3366 6.68191 16.3241C6.63946 16.3115 6.59494 16.3074 6.55089 16.3119C6.50684 16.3164 6.46412 16.3296 6.42516 16.3505C6.38621 16.3715 6.35179 16.3998 6.32386 16.434C6.29594 16.4682 6.27506 16.5075 6.26242 16.5497C6.24978 16.5919 6.24562 16.6362 6.25018 16.68C6.25474 16.7238 6.26794 16.7662 6.28901 16.805C6.31008 16.8437 6.33862 16.8779 6.373 16.9057C6.77284 17.193 7.20589 17.4316 7.66288 17.6164C6.56874 18.8732 5.37722 20.0428 4.09924 21.1144C3.76343 20.8611 3.45937 20.5686 3.19359 20.2433C3.17141 20.2052 3.1419 20.1719 3.10675 20.1451C3.0716 20.1184 3.03149 20.0988 2.98872 20.0874C2.94594 20.0761 2.90134 20.0732 2.85746 20.079C2.81358 20.0848 2.77127 20.0992 2.73296 20.1212C2.69465 20.1433 2.66108 20.1726 2.63417 20.2075C2.60727 20.2425 2.58755 20.2824 2.57614 20.3249C2.56473 20.3674 2.56186 20.4118 2.56769 20.4554C2.57352 20.499 2.58794 20.5411 2.61012 20.5792C2.77583 20.8638 3.23001 21.2688 3.55816 21.5403C3.37838 21.6761 3.20168 21.8053 3.03115 21.9219C2.8116 22.0712 2.5547 22.1569 2.28904 22.1696C2.02338 22.1824 1.75938 22.1215 1.52642 21.994L1.48114 21.9694C1.26882 21.8564 1.08635 21.6951 0.948599 21.4987C0.810844 21.3023 0.721693 21.0763 0.688407 20.8391C0.653146 20.6054 0.673897 20.3667 0.748968 20.1425C0.82404 19.9182 0.951311 19.7148 1.12042 19.5487C1.64358 19.0314 2.14593 18.4839 2.62823 17.912C2.63382 17.9057 2.63902 17.8992 2.64423 17.8929C3.70527 16.6277 4.647 15.2682 5.45752 13.8315C5.726 13.9826 6.00525 14.114 6.29303 14.2246C6.37649 14.2542 6.46831 14.25 6.54865 14.2128C6.629 14.1756 6.6914 14.1085 6.72236 14.026C6.75333 13.9434 6.75037 13.8521 6.71413 13.7717C6.67789 13.6913 6.61128 13.6283 6.5287 13.5964C6.27124 13.4968 6.02137 13.3788 5.78105 13.2433C6.2688 12.333 6.70622 11.3969 7.09135 10.4392C7.16153 10.2637 7.17466 10.0707 7.1289 9.88735C7.08315 9.70401 6.9808 9.53952 6.83623 9.41695C5.90846 8.64588 5.05993 7.78519 4.30311 6.84753C4.53819 6.53966 4.93475 6.06685 5.24171 5.89194C5.28013 5.87005 5.31385 5.84086 5.34092 5.80601C5.368 5.77117 5.3879 5.73137 5.39951 5.68888C5.41111 5.64639 5.41418 5.60204 5.40855 5.55837C5.40291 5.5147 5.38868 5.47256 5.36667 5.43436C5.34465 5.39616 5.31529 5.36264 5.28024 5.33572C5.2452 5.3088 5.20516 5.28901 5.16243 5.27747C5.11969 5.26594 5.07508 5.26288 5.03116 5.26848C4.98724 5.27409 4.94485 5.28824 4.90642 5.31012C4.5166 5.57337 4.17442 5.90036 3.89441 6.2772C3.78342 6.10708 3.68245 5.93696 3.59304 5.76761C3.43022 5.46323 3.39441 5.10738 3.49335 4.77697C3.59229 4.44656 3.81803 4.16812 4.12178 4.00185C4.30888 3.89813 4.51957 3.84379 4.73377 3.84399C4.87399 3.84436 5.01328 3.86666 5.14652 3.91008C5.32549 3.96784 5.49064 4.0615 5.63173 4.18527C5.77283 4.30904 5.88687 4.46029 5.96681 4.62964C6.19168 5.11012 6.46588 5.62757 6.78247 6.16781C6.87529 6.32665 7.01428 6.45384 7.18117 6.53267C7.34806 6.6115 7.53503 6.63828 7.71752 6.60949C7.9 6.5807 8.06945 6.49769 8.2036 6.37136C8.33774 6.24504 8.4303 6.08131 8.4691 5.90171C8.54155 5.55687 8.60552 5.21548 8.65967 4.88636C8.71285 4.56029 8.77008 4.24298 8.83136 3.93441C9.28746 4.16105 9.711 4.34477 9.73393 4.35473C9.81592 4.3903 9.90878 4.39202 9.99205 4.35952C10.0753 4.32703 10.1422 4.26297 10.178 4.18145C10.2138 4.09993 10.2155 4.00761 10.1828 3.92482C10.1501 3.84202 10.0857 3.77553 10.0037 3.73996C9.99753 3.73728 9.47379 3.51007 8.97761 3.25604C9.27185 2.09719 9.95282 1.23069 10.866 0.866311C11.8009 0.491396 12.8796 0.663815 13.903 1.34966C14.4107 1.69035 14.8111 2.1669 15.0579 2.72425C15.3048 3.2816 15.388 3.89701 15.2979 4.49937C14.7198 4.35198 14.1559 4.15461 13.6124 3.90951C13.5729 3.88775 13.5294 3.8741 13.4845 3.86937C13.4396 3.86465 13.3942 3.86893 13.351 3.88199C13.3078 3.89504 13.2676 3.91658 13.233 3.94535C13.1983 3.97411 13.1698 4.00951 13.1491 4.04943C13.1285 4.08936 13.1161 4.13301 13.1127 4.17778C13.1094 4.22255 13.1151 4.26754 13.1295 4.31008C13.144 4.35261 13.1669 4.39183 13.1969 4.4254C13.2269 4.45897 13.2633 4.48621 13.3041 4.5055C13.8915 4.77349 14.5018 4.98866 15.1277 5.14843C14.7818 6.15131 14.3848 7.13601 13.9381 8.09871C13.44 7.95005 12.2987 7.57973 11.6578 7.13202C11.6215 7.1067 11.5806 7.08872 11.5374 7.07911C11.4942 7.0695 11.4495 7.06845 11.4058 7.07602C11.3622 7.08359 11.3205 7.09963 11.2831 7.12323C11.2457 7.14682 11.2133 7.17751 11.1879 7.21353C11.1624 7.24956 11.1443 7.29022 11.1347 7.33319C11.125 7.37617 11.1239 7.42062 11.1316 7.464C11.1392 7.50738 11.1553 7.54884 11.179 7.58602C11.2028 7.6232 11.2336 7.65537 11.2699 7.68069C11.9549 8.15963 13.0765 8.53838 13.6494 8.71291C13.0102 10.0216 12.2952 11.2922 11.508 12.5186C11.4211 12.6528 11.3715 12.8076 11.3644 12.9671C11.3572 13.1267 11.3927 13.2852 11.4672 13.4267V13.4267Z" fill="var(--fill-0, #FB6D3A)"/>
<path id="Vector_2" d="M4.9994 18.7535C4.83715 18.9121 4.67613 19.0662 4.51632 19.2158C4.45119 19.2767 4.41308 19.3609 4.41039 19.4498C4.4077 19.5387 4.44064 19.6251 4.50196 19.6898C4.56329 19.7546 4.64798 19.7925 4.7374 19.7951C4.82682 19.7978 4.91365 19.7651 4.97878 19.7041C5.14218 19.5508 5.30681 19.3932 5.47265 19.2313C5.505 19.2006 5.53089 19.1638 5.54881 19.1231C5.56673 19.0823 5.57631 19.0384 5.57701 18.994C5.57771 18.9495 5.56951 18.9054 5.55288 18.8641C5.53625 18.8228 5.51153 18.7852 5.48016 18.7536C5.44878 18.7219 5.41138 18.6967 5.37014 18.6795C5.32889 18.6623 5.28461 18.6535 5.23989 18.6535C5.19517 18.6535 5.15089 18.6623 5.10963 18.6795C5.06838 18.6967 5.03097 18.7218 4.99959 18.7535H4.9994Z" fill="var(--fill-0, #FB6D3A)"/>
<path id="Vector_3" d="M11.1057 9.96806C11.0992 9.96538 10.4363 9.701 9.92855 9.44218C9.88915 9.42205 9.84615 9.40984 9.80201 9.40624C9.75786 9.40263 9.71343 9.40771 9.67126 9.42117C9.62908 9.43464 9.58999 9.45623 9.55621 9.48472C9.52243 9.51321 9.49462 9.54803 9.47438 9.58721C9.45413 9.62638 9.44185 9.66913 9.43823 9.71302C9.4346 9.75691 9.4397 9.80109 9.45325 9.84302C9.4668 9.88495 9.48851 9.92381 9.51717 9.9574C9.54582 9.99098 9.58085 10.0186 9.62025 10.0388C10.1565 10.3121 10.8265 10.5794 10.8546 10.5907C10.9377 10.6237 11.0305 10.6226 11.1127 10.5876C11.1949 10.5525 11.2598 10.4865 11.293 10.4039C11.3262 10.3213 11.3251 10.229 11.2899 10.1473C11.2546 10.0656 11.1882 10.0011 11.1051 9.96806H11.1057Z" fill="var(--fill-0, #FB6D3A)"/>
</g>
</svg>
