<svg preserveAspectRatio="none" width="100%" height="100%" overflow="visible" style="display: block;" viewBox="0 0 22.5067 22.5105" fill="none" xmlns="http://www.w3.org/2000/svg">
<g id="outline">
<path id="Vector" d="M16.1292 7.75794C16.1889 7.8375 16.2778 7.8901 16.3762 7.90417C16.4747 7.91823 16.5747 7.89261 16.6542 7.83294C16.7338 7.77326 16.7864 7.68443 16.8005 7.58597C16.8145 7.48751 16.7889 7.3875 16.7292 7.30794C16.633 7.17959 16.5307 7.05294 16.4254 6.93153C16.3933 6.89391 16.354 6.86303 16.3099 6.84065C16.2657 6.81828 16.2176 6.80486 16.1682 6.80117C16.1189 6.79749 16.0693 6.8036 16.0223 6.81916C15.9754 6.83473 15.932 6.85943 15.8946 6.89186C15.8572 6.92428 15.8266 6.96378 15.8046 7.00808C15.7825 7.05238 15.7695 7.10061 15.7661 7.14998C15.7628 7.19935 15.7693 7.24889 15.7852 7.29574C15.8011 7.34259 15.8262 7.38583 15.8589 7.42297C15.9526 7.53111 16.0436 7.6438 16.1292 7.75794V7.75794Z" fill="var(--fill-0, #FB6D3A)"/>
<path id="Vector_2" d="M17.1307 13.839C17.1766 13.8567 17.2256 13.8652 17.2749 13.864C17.3241 13.8627 17.3726 13.8518 17.4177 13.8318C17.4627 13.8118 17.5033 13.7831 17.5372 13.7474C17.5712 13.7117 17.5977 13.6696 17.6153 13.6236C18.1567 12.2156 18.1975 10.6643 17.7307 9.22982C17.6999 9.13526 17.6328 9.05681 17.5441 9.01174C17.4555 8.96667 17.3525 8.95867 17.258 8.98949C17.1634 9.02032 17.085 9.08745 17.0399 9.17611C16.9948 9.26478 16.9868 9.36771 17.0176 9.46228C17.431 10.733 17.3949 12.1071 16.9153 13.3543C16.8796 13.4471 16.8822 13.5503 16.9226 13.6412C16.963 13.7321 17.0378 13.8032 17.1307 13.839V13.839Z" fill="var(--fill-0, #FB6D3A)"/>
<path id="Vector_3" d="M5.6452 12.957C5.71485 12.9825 5.79049 12.9867 5.86257 12.9692C5.93464 12.9517 5.99991 12.9132 6.05012 12.8587C6.10032 12.8041 6.13321 12.7358 6.14463 12.6625C6.15604 12.5892 6.14547 12.5142 6.11424 12.4469C6.08301 12.3797 6.03254 12.3232 5.9692 12.2846C5.90586 12.246 5.8325 12.227 5.7584 12.2301C5.68429 12.2333 5.61277 12.2583 5.55288 12.302C5.49299 12.3458 5.44742 12.4063 5.42193 12.4759C5.38775 12.5693 5.39207 12.6725 5.43394 12.7627C5.47581 12.8529 5.5518 12.9228 5.6452 12.957Z" fill="var(--fill-0, #FB6D3A)"/>
<path id="Vector_4" d="M4.22344 11.329C4.29309 11.3545 4.36874 11.3588 4.44081 11.3413C4.51289 11.3238 4.57816 11.2854 4.62838 11.2308C4.67859 11.1762 4.71148 11.1079 4.7229 11.0346C4.73433 10.9613 4.72376 10.8863 4.69254 10.819C4.66132 10.7518 4.61085 10.6953 4.54751 10.6567C4.48417 10.6181 4.41081 10.5991 4.33671 10.6022C4.2626 10.6053 4.19108 10.6303 4.13119 10.6741C4.07129 10.7178 4.02572 10.7783 4.00022 10.848C3.96604 10.9414 3.97036 11.0445 4.01222 11.1347C4.05408 11.225 4.13006 11.2948 4.22344 11.329Z" fill="var(--fill-0, #FB6D3A)"/>
<path id="Vector_5" d="M4.64235 12.514C4.66785 12.4444 4.67212 12.3687 4.65463 12.2966C4.63713 12.2246 4.59866 12.1593 4.54407 12.1091C4.48949 12.0589 4.42124 12.026 4.34795 12.0146C4.27467 12.0031 4.19965 12.0137 4.13237 12.0449C4.06509 12.0761 4.00858 12.1266 3.96998 12.1899C3.93138 12.2533 3.91243 12.3266 3.91553 12.4007C3.91862 12.4748 3.94362 12.5464 3.98736 12.6063C4.0311 12.6662 4.09162 12.7117 4.16127 12.7372C4.20751 12.7542 4.25664 12.7618 4.30585 12.7598C4.35505 12.7577 4.40337 12.746 4.44804 12.7253C4.49271 12.7045 4.53287 12.6752 4.56621 12.639C4.59954 12.6027 4.62542 12.5603 4.64235 12.514Z" fill="var(--fill-0, #FB6D3A)"/>
<path id="Vector_6" d="M4.98744 13.6055C4.91779 13.58 4.84215 13.5758 4.77008 13.5933C4.69801 13.6108 4.63274 13.6493 4.58254 13.7038C4.53233 13.7584 4.49944 13.8267 4.48803 13.9C4.47662 13.9733 4.48719 14.0483 4.51841 14.1156C4.54963 14.1828 4.6001 14.2393 4.66343 14.2779C4.72677 14.3165 4.80013 14.3355 4.87423 14.3324C4.94833 14.3293 5.01985 14.3043 5.07974 14.2605C5.13963 14.2168 5.18521 14.1563 5.21071 14.0866C5.22764 14.0404 5.2353 13.9912 5.23324 13.942C5.23118 13.8928 5.21945 13.8445 5.19872 13.7998C5.17799 13.7551 5.14866 13.715 5.11241 13.6817C5.07615 13.6483 5.03369 13.6225 4.98744 13.6055V13.6055Z" fill="var(--fill-0, #FB6D3A)"/>
<path id="Vector_7" d="M6.00945 15.1778C5.9398 15.1523 5.86416 15.148 5.79209 15.1655C5.72001 15.183 5.65474 15.2215 5.60453 15.2761C5.55432 15.3307 5.52143 15.3989 5.51001 15.4722C5.49859 15.5455 5.50915 15.6205 5.54037 15.6878C5.57158 15.7551 5.62205 15.8116 5.68538 15.8502C5.74872 15.8888 5.82207 15.9077 5.89617 15.9046C5.97028 15.9015 6.0418 15.8765 6.10169 15.8328C6.16159 15.789 6.20717 15.7285 6.23267 15.6589C6.2496 15.6126 6.25726 15.5635 6.2552 15.5143C6.25315 15.4651 6.24142 15.4168 6.2207 15.3721C6.19997 15.3274 6.17064 15.2873 6.1344 15.2539C6.09815 15.2206 6.0557 15.1947 6.00945 15.1778Z" fill="var(--fill-0, #FB6D3A)"/>
<path id="Vector_8" d="M6.52508 13.769C6.45544 13.7435 6.37979 13.7392 6.30769 13.7566C6.2356 13.7741 6.17031 13.8126 6.12007 13.8671C6.06984 13.9217 6.03692 13.99 6.02548 14.0633C6.01404 14.1366 6.0246 14.2116 6.05581 14.2789C6.08702 14.3462 6.13749 14.4027 6.20083 14.4413C6.26417 14.4799 6.33754 14.4989 6.41165 14.4958C6.48577 14.4927 6.5573 14.4677 6.6172 14.4239C6.6771 14.3802 6.72267 14.3196 6.74816 14.25C6.78232 14.1566 6.77801 14.0535 6.73618 13.9633C6.69435 13.8731 6.61842 13.8032 6.52508 13.769V13.769Z" fill="var(--fill-0, #FB6D3A)"/>
<path id="Vector_9" d="M22.1317 14.625H18.7962C19.2946 13.5698 19.5519 12.417 19.5494 11.25C19.5494 7.05 16.2514 3.57338 12.0025 3.06431V0.375C12.0025 0.275544 11.963 0.180161 11.8927 0.109835C11.8224 0.0395088 11.727 0 11.6275 0H10.1744C10.0749 0 9.97955 0.0395088 9.90923 0.109835C9.8389 0.180161 9.79939 0.275544 9.79939 0.375V1.545L8.73064 1.68211L6.55822 1.959C4.90266 2.16696 3.39245 3.0094 2.34575 4.30884L0.0833782 7.10691C0.0338983 7.16811 0.00492943 7.24333 0.00057467 7.32191C-0.00378009 7.4005 0.0167001 7.47846 0.0591143 7.54476C0.101529 7.61105 0.163727 7.66232 0.236899 7.69131C0.310071 7.72029 0.390508 7.72552 0.466816 7.70625L3.58714 6.91814C2.67924 8.31258 2.23175 9.95674 2.30774 11.619C2.38373 13.2812 2.97936 14.8777 4.01071 16.1835C5.08492 17.5551 6.55146 18.567 8.21507 19.0844C8.51724 19.5358 8.86718 19.9533 9.25883 20.3297C10.7203 21.7359 12.668 22.5105 14.7432 22.5105C16.8184 22.5105 18.7663 21.736 20.2276 20.3297C20.9494 19.6426 21.5237 18.8156 21.9155 17.8994C22.3074 16.9831 22.5085 15.9966 22.5067 15C22.5067 14.9005 22.4672 14.8052 22.3969 14.7348C22.3265 14.6645 22.2311 14.625 22.1317 14.625V14.625ZM10.9526 18.6697C10.0448 17.802 9.49236 16.6276 9.40283 15.375H13.9243L11.4469 19.0913C11.2737 18.961 11.1086 18.8201 10.9526 18.6697V18.6697ZM14.625 15.676L17.2352 19.5913C16.4311 19.9914 15.5425 20.1919 14.6445 20.1758C13.7465 20.1597 12.8656 19.9275 12.0764 19.4989L14.625 15.676ZM17.88 19.2066L15.3257 15.375H20.0838C19.9942 16.6276 19.4418 17.802 18.534 18.6697C18.3306 18.8657 18.1119 19.0452 17.88 19.2066V19.2066ZM10.5494 0.75H11.2525V3H10.5494V0.75ZM9.79939 3.07031C9.30742 3.13173 8.82145 3.23418 8.34655 3.37659L8.9953 2.40431L9.79958 2.30119L9.79939 3.07031ZM7.49136 3.30703L7.22778 3.70214C7.19628 3.74934 7.16371 3.79589 7.1308 3.84234C6.69933 4.04521 6.28522 4.28312 5.89264 4.55367L5.91608 4.29844L7.49136 3.30703ZM6.65296 2.703L7.14196 2.64066L4.67952 4.19063C4.65139 4.17619 3.73011 3.969 3.73011 3.969C4.56403 3.2774 5.57803 2.8382 6.65296 2.703V2.703ZM2.92878 4.78036C2.98007 4.71695 3.0326 4.65488 3.08638 4.59413C3.09332 4.59609 3.10016 4.59825 3.10728 4.59984L3.79053 4.74984L2.08621 5.82263L2.92878 4.78036ZM3.87097 6.07294L2.5775 6.39966L5.11677 4.8015L5.08119 5.18766C4.81428 5.42315 4.56246 5.67522 4.32721 5.94234C4.20102 5.98214 3.98539 6.04406 3.87088 6.07294H3.87097ZM4.60175 15.7219C3.59551 14.4486 3.04853 12.8729 3.04939 11.25C3.04939 7.1145 6.58208 3.75 10.9244 3.75C15.2667 3.75 18.7994 7.1145 18.7994 11.25C18.8019 12.4258 18.5138 13.584 17.9607 14.6216C17.96 14.6227 17.9597 14.6239 17.9591 14.625H7.35467C7.25522 14.625 7.15984 14.6645 7.08951 14.7348C7.01918 14.8052 6.97967 14.9005 6.97967 15C6.97754 16.0596 7.20509 17.1071 7.64666 18.0703C6.45381 17.5502 5.40787 16.7435 4.60175 15.7219V15.7219ZM19.7076 19.7894C18.3867 21.0606 16.6236 21.7607 14.7433 21.7607C12.8629 21.7607 11.1 21.0606 9.77891 19.7894C8.56203 18.6312 7.8329 17.0524 7.74027 15.375H8.65152C8.74136 16.8316 9.37713 18.2008 10.432 19.2094C11.58 20.3167 13.1111 20.9266 14.7433 20.9266C16.3754 20.9266 17.9066 20.3168 19.0547 19.2094C20.1095 18.2008 20.7453 16.8316 20.8351 15.375H21.7463C21.6536 17.0524 20.9245 18.6312 19.7076 19.7894V19.7894Z" fill="var(--fill-0, #FB6D3A)"/>
</g>
</svg>
