<svg preserveAspectRatio="none" width="100%" height="100%" overflow="visible" style="display: block;" viewBox="0 0 22.8766 22.5" fill="none" xmlns="http://www.w3.org/2000/svg">
<g id="outline">
<path id="Vector" d="M22.3736 7.55537C21.7874 5.98002 20.7311 4.76323 19.319 4.03638C19.0487 3.9003 18.8193 3.69487 18.6543 3.44109C18.4894 3.18731 18.3948 2.89428 18.3802 2.59195L18.374 2.36226C18.3718 2.27867 18.3418 2.1982 18.2886 2.13365C18.2355 2.06911 18.1622 2.02418 18.0806 2.00601C17.999 1.98785 17.9136 1.99748 17.8381 2.03339C17.7626 2.0693 17.7013 2.12942 17.6638 2.2042L17.561 2.40914C17.4195 2.67677 17.2095 2.90203 16.9524 3.0619C16.6953 3.22176 16.4004 3.3105 16.0978 3.31904C14.4107 3.38166 12.87 4.12835 11.6728 5.37842C11.1446 4.16577 10.3183 3.10639 9.2708 2.29881C8.22327 1.49123 6.98852 0.961674 5.6814 0.759398L0.80757 0.00442064C0.744722 -0.00531572 0.680431 0.00109185 0.620741 0.0230408C0.561051 0.0449898 0.507924 0.0817591 0.466354 0.129891C0.424785 0.178024 0.39614 0.235937 0.383113 0.298187C0.370085 0.360436 0.373103 0.424977 0.391882 0.485739L1.8488 5.19753C2.45122 7.14616 3.78861 8.7837 5.57762 9.76321C5.19786 9.93062 4.83202 10.128 4.48355 10.3534C3.07341 11.268 2.11529 12.5635 1.71277 14.0999C1.63869 14.3934 1.48799 14.662 1.27609 14.8781C1.06418 15.0943 0.798659 15.2504 0.506679 15.3303L0.284211 15.3861C0.20304 15.4063 0.130974 15.4531 0.0794741 15.5191C0.0279746 15.585 0 15.6663 0 15.7499C0 15.8336 0.0279746 15.9148 0.0794741 15.9808C0.130974 16.0467 0.20304 16.0935 0.284211 16.1138L0.506679 16.1696C0.798654 16.2495 1.06417 16.4055 1.27608 16.6217C1.48798 16.8379 1.63869 17.1064 1.71277 17.3999C2.11529 18.9363 3.07341 20.2318 4.48355 21.1464C5.84888 22.032 7.54037 22.5 9.37515 22.5C12.5273 22.5 15.1411 21.157 16.4098 18.9435C16.4168 18.9435 16.4239 18.9441 16.4305 18.9441C16.5549 18.9441 16.6791 18.934 16.8018 18.914C19.6366 18.452 21.8703 16.0419 22.6314 12.6242C23.0303 10.8333 22.9411 9.08051 22.3736 7.55537V7.55537ZM11.124 6.01813C10.6832 6.59571 10.3162 7.22598 10.0314 7.89437L9.72395 7.62887L9.80209 3.81901C10.3725 4.46581 10.8204 5.21098 11.124 6.01813V6.01813ZM2.88699 5.81929L5.75574 5.19294L6.7937 6.08929L3.34595 6.66919C3.17384 6.39664 3.0205 6.11268 2.88699 5.81929V5.81929ZM3.60418 3.33488L2.14201 3.60676L1.49466 1.5132L3.60418 3.33488ZM1.98484 0.945541L4.15023 1.28103L4.09435 2.76727L1.98484 0.945541ZM2.56534 4.97595L2.36499 4.32803L4.33107 3.96269L5.0461 4.58023L2.61005 5.11212C2.59501 5.06698 2.57945 5.02165 2.56534 4.97595V4.97595ZM7.35545 2.0263L7.28377 5.52167L6.24582 4.62532L6.44776 1.69602C6.75748 1.78534 7.06075 1.89569 7.35545 2.0263V2.0263ZM8.0978 2.4082C8.43945 2.61095 8.76349 2.842 9.06652 3.09891L8.98684 6.9923L8.02121 6.15824L8.0978 2.4082ZM5.70779 1.52497L5.53632 4.01256L4.82124 3.39502L4.89624 1.39667L5.56655 1.50055C5.61385 1.50786 5.66077 1.51667 5.70779 1.52497V1.52497ZM3.8319 7.34804L7.53071 6.72591L8.49634 7.55992L4.65615 8.20586C4.35789 7.94347 4.08218 7.65653 3.8319 7.34804V7.34804ZM5.4766 8.82846L9.23363 8.19653L9.74645 8.63941C9.70613 8.7592 9.66793 8.8806 9.63184 9.00364C9.54657 9.00167 9.46121 8.99984 9.37515 8.99984C8.41956 8.99524 7.46848 9.13106 6.55238 9.40297C6.17792 9.2428 5.81798 9.05058 5.4766 8.82846V8.82846ZM4.8917 10.9827C5.4332 10.6345 6.01834 10.3593 6.63193 10.1644C6.6429 10.1614 6.65354 10.1576 6.66418 10.1536C7.5418 9.88083 8.45614 9.74466 9.37515 9.74985C12.5634 9.74985 15.1345 11.2258 16.0853 13.6017C16.2094 13.9074 16.2317 14.245 16.1488 14.5645C16.0659 14.8839 15.8823 15.1681 15.6252 15.3749H15.2471C15.3463 15.0935 15.3885 14.7952 15.3714 14.4973C15.3543 14.1995 15.2782 13.908 15.1475 13.6397C15.0168 13.3715 14.8342 13.132 14.6101 12.9349C14.386 12.7379 14.1251 12.5874 13.8423 12.4921C13.4944 12.02 12.9668 11.6467 12.3416 11.433C11.9661 11.3034 11.5704 11.242 11.1733 11.2517C10.6788 10.778 9.92738 10.4999 9.12155 10.4999C8.29726 10.4999 7.53249 10.7896 7.03871 11.2819C6.74746 11.3082 6.46087 11.3723 6.18615 11.4725C5.23388 11.8177 4.53929 12.5231 4.3562 13.3093C3.95244 13.4826 3.60858 13.7708 3.36746 14.1381C3.12633 14.5054 2.99859 14.9355 3.00015 15.3749H1.83793C2.12577 15.0692 2.33221 14.6962 2.4383 14.2899C2.79263 12.9374 3.64098 11.7936 4.8917 10.9827V10.9827ZM8.14013 18.4849L7.77357 18.1182C7.46051 17.8041 7.03879 17.6221 6.59546 17.61L4.88748 17.5537C4.86116 17.553 4.83483 17.5549 4.80891 17.5596C4.80657 17.5588 4.80423 17.5576 4.80202 17.5569C4.49646 17.4623 4.22932 17.2721 4.03996 17.0144C3.8506 16.7566 3.74901 16.4448 3.75015 16.1249H14.4248C14.5553 16.3515 14.6244 16.6082 14.6251 16.8697C14.6258 17.1312 14.5582 17.3883 14.4289 17.6156L12.0872 17.6215C11.7654 17.6217 11.4501 17.7118 11.1768 17.8815C10.9034 18.0512 10.6828 18.2938 10.5398 18.582C10.5173 18.6261 10.5037 18.6742 10.4999 18.7235C10.4961 18.7729 10.5022 18.8225 10.5176 18.8695C10.5331 18.9165 10.5577 18.96 10.5901 18.9975C10.6224 19.0349 10.6619 19.0656 10.7061 19.0877C10.7504 19.1099 10.7986 19.123 10.848 19.1264C10.8973 19.1299 10.9469 19.1235 10.9938 19.1076C11.0407 19.0918 11.084 19.0669 11.1212 19.0342C11.1584 19.0016 11.1887 18.9619 11.2105 18.9174C11.2918 18.7537 11.4171 18.6158 11.5724 18.5194C11.7277 18.4229 11.9068 18.3717 12.0896 18.3715L13.411 18.3681C13.3646 18.3969 13.3249 18.4356 13.2949 18.4813C13.0455 18.8633 12.6095 19.1825 12.0989 19.357C11.7649 19.4738 11.4102 19.5191 11.0576 19.4898C10.9984 19.4843 10.9387 19.4929 10.8835 19.5149C10.8282 19.537 10.779 19.5719 10.74 19.6168C10.3996 20.0072 9.7794 20.2496 9.12155 20.2496C8.45799 20.2496 7.83516 20.004 7.49612 19.6087C7.46248 19.5695 7.42111 19.5377 7.37459 19.5152C7.32807 19.4927 7.27741 19.4801 7.22579 19.4781C6.95792 19.4669 6.69341 19.4141 6.44171 19.3218C5.87874 19.1177 5.41918 18.7346 5.1992 18.314L6.57263 18.3592C6.82502 18.3658 7.06519 18.4692 7.24346 18.648L7.61002 19.0146C7.6447 19.05 7.68606 19.0783 7.73172 19.0976C7.77738 19.117 7.82643 19.1271 7.87603 19.1274C7.92563 19.1277 7.97479 19.1181 8.02067 19.0993C8.06655 19.0804 8.10823 19.0527 8.1433 19.0176C8.17838 18.9825 8.20615 18.9409 8.22501 18.895C8.24386 18.8491 8.25343 18.7999 8.25316 18.7503C8.25288 18.7007 8.24277 18.6517 8.22341 18.606C8.20405 18.5604 8.17583 18.519 8.14037 18.4843L8.14013 18.4849ZM4.80202 13.943C4.80446 13.9422 4.80671 13.941 4.8091 13.9402C4.83076 13.9441 4.85272 13.9461 4.87473 13.9462H4.88729L6.59354 13.89C7.03755 13.8782 7.46006 13.6963 7.77366 13.3817L8.14023 13.0151C8.17569 12.9804 8.20391 12.9391 8.22327 12.8934C8.24263 12.8477 8.25274 12.7987 8.25302 12.7491C8.25329 12.6995 8.24372 12.6503 8.22486 12.6044C8.20601 12.5586 8.17824 12.5169 8.14316 12.4818C8.10809 12.4468 8.06641 12.419 8.02053 12.4001C7.97465 12.3813 7.92549 12.3717 7.87589 12.372C7.82629 12.3723 7.77724 12.3824 7.73158 12.4018C7.68592 12.4211 7.64456 12.4494 7.60988 12.4849L7.24332 12.8514C7.06455 13.0305 6.82368 13.134 6.57066 13.1403L5.1991 13.1855C5.41913 12.765 5.87879 12.3818 6.44162 12.1776C6.69332 12.0853 6.95782 12.0325 7.2257 12.0213C7.27732 12.0193 7.32798 12.0067 7.3745 11.9842C7.42102 11.9618 7.46239 11.9299 7.49602 11.8907C7.83516 11.4954 8.45799 11.2499 9.12155 11.2499C9.7794 11.2499 10.3996 11.4924 10.74 11.8827C10.7791 11.9275 10.8283 11.9623 10.8835 11.9844C10.9387 12.0065 10.9984 12.0151 11.0576 12.0096C11.4102 11.9804 11.7649 12.0257 12.0989 12.1425C12.6095 12.317 13.0455 12.6362 13.2949 13.0182C13.3249 13.0639 13.3646 13.1025 13.411 13.1314L12.0901 13.128C11.9072 13.1278 11.728 13.0766 11.5726 12.9802C11.4172 12.8837 11.2918 12.7458 11.2105 12.582C11.1656 12.4939 11.0876 12.4271 10.9936 12.3961C10.8996 12.3652 10.7972 12.3727 10.7087 12.417C10.6202 12.4612 10.5528 12.5387 10.5212 12.6324C10.4895 12.7262 10.4962 12.8286 10.5398 12.9175C10.6828 13.2058 10.9035 13.4484 11.177 13.6181C11.4505 13.7878 11.7659 13.8778 12.0877 13.878L14.4289 13.8839C14.5582 14.1112 14.6258 14.3683 14.6251 14.6298C14.6244 14.8912 14.5553 15.148 14.4248 15.3745L3.75015 15.3749C3.74901 15.0551 3.8506 14.7433 4.03996 14.4855C4.22932 14.2277 4.49646 14.0375 4.80202 13.943V13.943ZM9.37515 21.75C7.68554 21.75 6.1352 21.3237 4.8917 20.5172C3.64098 19.7062 2.79263 18.5625 2.4383 17.2099C2.33221 16.8037 2.12577 16.4306 1.83793 16.1249H3.00015C2.99859 16.5643 3.12633 16.9944 3.36746 17.3617C3.60858 17.729 3.95244 18.0173 4.3562 18.1905C4.53929 18.9767 5.23388 19.6822 6.18615 20.0273C6.46087 20.1276 6.74746 20.1916 7.03871 20.2179C7.53226 20.7102 8.29726 21 9.12155 21C9.92738 21 10.6788 20.7219 11.1731 20.2482C11.5702 20.2581 11.9659 20.1968 12.3414 20.0672C12.9666 19.8535 13.4942 19.4801 13.8421 19.0081C14.1249 18.9128 14.3859 18.7622 14.61 18.5652C14.8341 18.3682 15.0169 18.1286 15.1476 17.8603C15.2783 17.5921 15.3544 17.3005 15.3715 17.0026C15.3886 16.7047 15.3463 16.4064 15.2471 16.1249H15.6252C15.8823 16.3318 16.0659 16.616 16.1488 16.9354C16.2317 17.2548 16.2094 17.5924 16.0853 17.8982C15.1345 20.2741 12.5634 21.75 9.37515 21.75V21.75ZM21.8994 12.4612C21.2164 15.528 19.2643 17.6972 16.7905 18.1534C16.889 17.9009 16.9422 17.633 16.9479 17.3621L17.8191 16.3546C18.0306 16.11 18.2291 15.8544 18.4138 15.589C18.47 15.5074 18.4916 15.4068 18.4739 15.3092C18.4561 15.2116 18.4005 15.1251 18.3191 15.0685C18.2377 15.0118 18.1372 14.9898 18.0395 15.0071C17.9419 15.0244 17.8551 15.0796 17.7981 15.1608C17.6284 15.4045 17.4461 15.6392 17.2518 15.8639L16.7665 16.4249C16.6602 16.1753 16.51 15.9467 16.3231 15.7499C16.6244 15.4321 16.8279 15.0342 16.9092 14.6039C16.9905 14.1735 16.9462 13.7289 16.7816 13.323C16.6246 12.9316 16.4275 12.5575 16.1933 12.2068L16.8892 9.08136C16.9003 9.03315 16.9018 8.98322 16.8935 8.93445C16.8852 8.88568 16.8673 8.83903 16.8409 8.79719C16.8145 8.75534 16.7801 8.71914 16.7397 8.69065C16.6992 8.66217 16.6536 8.64197 16.6053 8.63121C16.557 8.62046 16.5071 8.61937 16.4583 8.62799C16.4096 8.63662 16.3631 8.65481 16.3215 8.68149C16.2798 8.70818 16.2438 8.74285 16.2157 8.78349C16.1875 8.82414 16.1676 8.86996 16.1572 8.91832L15.5947 11.4449C14.855 10.6391 13.8961 10.0084 12.7805 9.58963C13.0013 8.92562 13.3036 8.29158 13.6805 7.70204C13.7071 7.66055 13.7252 7.61424 13.7338 7.56576C13.7424 7.51727 13.7415 7.46755 13.7309 7.41945C13.7203 7.37135 13.7004 7.3258 13.6722 7.2854C13.644 7.24501 13.6082 7.21056 13.5667 7.18402C13.5252 7.15748 13.4789 7.13938 13.4304 7.13074C13.3819 7.1221 13.3322 7.12309 13.2841 7.13367C13.236 7.14424 13.1904 7.16418 13.15 7.19236C13.1096 7.22054 13.0752 7.25639 13.0486 7.29788C12.6376 7.94097 12.3081 8.63263 12.0677 9.35699C11.5226 9.2057 10.9652 9.10281 10.402 9.04953C11.3307 6.10368 13.5401 4.16467 16.1259 4.06867C16.7457 4.04722 17.3353 3.7951 17.779 3.3617C17.9969 3.94244 18.4237 4.42092 18.9759 4.70341C20.2191 5.34322 21.1509 6.4199 21.6708 7.81708C22.1876 9.20609 22.2667 10.812 21.8994 12.4612V12.4612Z" fill="var(--fill-0, #FB6D3A)"/>
<path id="Vector_2" d="M17.3563 5.2588C17.2592 5.23719 17.1576 5.25503 17.0736 5.30839C16.9897 5.36174 16.9304 5.44626 16.9088 5.54333L16.4912 7.41833C16.4801 7.46654 16.4787 7.51647 16.487 7.56524C16.4953 7.61401 16.5131 7.66066 16.5395 7.7025C16.5659 7.74434 16.6003 7.78055 16.6408 7.80903C16.6812 7.83752 16.7269 7.85772 16.7752 7.86847C16.8235 7.87923 16.8734 7.88032 16.9221 7.87169C16.9708 7.86306 17.0173 7.84488 17.059 7.81819C17.1006 7.7915 17.1366 7.75684 17.1648 7.71619C17.193 7.67555 17.2129 7.62973 17.2233 7.58136L17.6408 5.70636C17.6515 5.65829 17.6527 5.60858 17.6442 5.56007C17.6357 5.51157 17.6177 5.46521 17.5913 5.42365C17.5649 5.38209 17.5305 5.34614 17.4902 5.31785C17.4499 5.28957 17.4044 5.2695 17.3563 5.2588Z" fill="var(--fill-0, #FB6D3A)"/>
<path id="Vector_3" d="M15.5263 4.59931L14.556 5.4965C14.3409 5.69539 14.1331 5.90684 13.9383 6.12491C13.9052 6.1616 13.8797 6.20446 13.8633 6.25103C13.8468 6.2976 13.8398 6.34696 13.8424 6.39628C13.8451 6.4456 13.8575 6.4939 13.8789 6.53842C13.9003 6.58293 13.9303 6.62278 13.9671 6.65567C14.004 6.68857 14.0469 6.71386 14.0936 6.7301C14.1402 6.74634 14.1896 6.7532 14.2389 6.7503C14.2882 6.74739 14.3365 6.73477 14.3809 6.71317C14.4253 6.69157 14.465 6.6614 14.4978 6.62441C14.6766 6.42416 14.8675 6.22991 15.0649 6.04719L16.0353 5.15C16.072 5.11671 16.1017 5.07648 16.1228 5.03164C16.1438 4.98679 16.1558 4.93821 16.158 4.88872C16.1601 4.83922 16.1525 4.78978 16.1354 4.74326C16.1184 4.69673 16.0923 4.65405 16.0587 4.61767C16.025 4.58129 15.9845 4.55193 15.9395 4.5313C15.8944 4.51066 15.8458 4.49916 15.7962 4.49746C15.7467 4.49575 15.6974 4.50387 15.651 4.52135C15.6046 4.53884 15.5622 4.56533 15.5261 4.59931H15.5263Z" fill="var(--fill-0, #FB6D3A)"/>
<path id="Vector_4" d="M19.6883 10.9831C19.6396 10.9758 19.5899 10.9783 19.5421 10.9902C19.4944 11.0021 19.4494 11.0234 19.4098 11.0527C19.3703 11.082 19.3369 11.1188 19.3115 11.1611C19.2862 11.2033 19.2694 11.2501 19.2622 11.2988L19.2211 11.5747C19.0892 12.4616 18.8171 13.3217 18.4148 14.123C18.392 14.1671 18.3781 14.2152 18.3741 14.2647C18.37 14.3142 18.3758 14.364 18.3911 14.4113C18.4065 14.4585 18.431 14.5022 18.4634 14.5399C18.4957 14.5775 18.5353 14.6084 18.5796 14.6307C18.624 14.6529 18.6724 14.6662 18.7219 14.6696C18.7715 14.673 18.8212 14.6666 18.8682 14.6506C18.9153 14.6347 18.9587 14.6095 18.9959 14.5767C19.0331 14.5438 19.0635 14.5039 19.0852 14.4592C19.5231 13.587 19.8193 12.6506 19.9628 11.6852L20.0039 11.4093C20.0186 11.3109 19.9935 11.2107 19.9344 11.1308C19.8752 11.0509 19.7867 10.9978 19.6883 10.9831V10.9831Z" fill="var(--fill-0, #FB6D3A)"/>
<path id="Vector_5" d="M19.9833 8.56362C19.9619 8.43331 19.9375 8.30191 19.9106 8.17305C19.9007 8.12469 19.8814 8.07876 19.8537 8.03789C19.826 7.99702 19.7905 7.96202 19.7493 7.93489C19.708 7.90777 19.6618 7.88905 19.6133 7.87982C19.5648 7.87059 19.515 7.87103 19.4667 7.88111C19.4183 7.89118 19.3725 7.9107 19.3317 7.93854C19.2909 7.96639 19.2561 8.002 19.2291 8.04335C19.2021 8.0847 19.1836 8.13096 19.1746 8.17949C19.1655 8.22802 19.1661 8.27786 19.1764 8.32615C19.2011 8.44446 19.2236 8.56521 19.2432 8.68498C19.3014 9.04143 19.3369 9.40124 19.3494 9.76221C19.3527 9.85935 19.3937 9.95139 19.4635 10.019C19.5334 10.0865 19.6268 10.1243 19.7239 10.1244H19.7371C19.8365 10.1209 19.9304 10.0782 19.9983 10.0055C20.0661 9.93281 20.1023 9.83615 20.0989 9.73676C20.0854 9.34378 20.0467 8.95206 19.9833 8.56399L19.9833 8.56362Z" fill="var(--fill-0, #FB6D3A)"/>
<path id="Vector_6" d="M18.8767 7.24891C18.893 7.29538 18.9183 7.33819 18.9512 7.37489C18.984 7.41158 19.0238 7.44145 19.0682 7.46277C19.1126 7.4841 19.1607 7.49648 19.2099 7.49919C19.2591 7.50191 19.3083 7.49491 19.3548 7.4786C19.4013 7.46228 19.4441 7.43698 19.4808 7.40412C19.5175 7.37126 19.5474 7.3315 19.5687 7.2871C19.59 7.2427 19.6024 7.19454 19.6051 7.14536C19.6078 7.09618 19.6008 7.04695 19.5845 7.00047C19.5352 6.85985 19.4818 6.71922 19.4256 6.58084L18.979 5.48336C18.9412 5.39174 18.8686 5.31882 18.7772 5.28055C18.6858 5.24227 18.5829 5.24176 18.4911 5.27912C18.3993 5.31647 18.326 5.38866 18.2872 5.4799C18.2485 5.57114 18.2475 5.67401 18.2843 5.76602L18.7309 6.8635C18.7821 6.99039 18.8312 7.12 18.8767 7.24891Z" fill="var(--fill-0, #FB6D3A)"/>
<path id="Vector_7" d="M8.14026 14.89L8.35997 14.6703C8.6292 14.4011 8.99436 14.2498 9.37512 14.2498C9.75587 14.2498 10.121 14.4011 10.3903 14.6703L10.6099 14.89C10.6447 14.9248 10.6861 14.9524 10.7316 14.9713C10.7771 14.9901 10.8258 14.9998 10.8751 14.9998C10.9243 14.9998 10.9731 14.9901 11.0186 14.9713C11.0641 14.9524 11.1054 14.9248 11.1403 14.89C11.1751 14.8552 11.2027 14.8138 11.2216 14.7683C11.2404 14.7228 11.2501 14.6741 11.2501 14.6248C11.2501 14.5756 11.2404 14.5268 11.2216 14.4813C11.2027 14.4358 11.1751 14.3945 11.1403 14.3596L10.9206 14.14C10.5107 13.7301 9.95478 13.4998 9.37512 13.4998C8.79545 13.4998 8.23952 13.7301 7.82962 14.14L7.60992 14.3597C7.53959 14.43 7.50008 14.5254 7.50008 14.6249C7.50008 14.7243 7.53959 14.8197 7.60992 14.89C7.68025 14.9604 7.77563 14.9999 7.87509 14.9999C7.97455 14.9999 8.06994 14.9604 8.14026 14.89V14.89Z" fill="var(--fill-0, #FB6D3A)"/>
<path id="Vector_8" d="M10.9206 17.3597L11.1403 17.14C11.1751 17.1052 11.2027 17.0639 11.2216 17.0184C11.2404 16.9729 11.2501 16.9241 11.2501 16.8748C11.2501 16.8256 11.2404 16.7768 11.2216 16.7313C11.2027 16.6858 11.1751 16.6445 11.1403 16.6097C11.1054 16.5749 11.0641 16.5472 11.0186 16.5284C10.9731 16.5095 10.9243 16.4998 10.8751 16.4998C10.8258 16.4998 10.7771 16.5095 10.7316 16.5284C10.6861 16.5472 10.6447 16.5749 10.6099 16.6097L10.3902 16.8294C10.121 17.0986 9.75582 17.2499 9.37507 17.2499C8.99431 17.2499 8.62915 17.0986 8.35992 16.8294L8.14026 16.6097C8.06993 16.5394 7.97455 16.4999 7.87509 16.4999C7.77563 16.4999 7.68025 16.5394 7.60992 16.6097C7.53959 16.6801 7.50008 16.7754 7.50008 16.8749C7.50008 16.9744 7.53959 17.0697 7.60992 17.1401L7.82958 17.3597C8.23947 17.7696 8.7954 17.9999 9.37507 17.9999C9.95474 17.9999 10.5107 17.7696 10.9206 17.3597V17.3597Z" fill="var(--fill-0, #FB6D3A)"/>
</g>
</svg>
